<?xml version="1.0" encoding="utf-8"?>
<!-- Generator: Adobe Illustrator 16.0.3, SVG Export Plug-In . SVG Version: 6.00 Build 0)  -->
<!DOCTYPE svg PUBLIC "-//W3C//DTD SVG 1.1//EN" "http://www.w3.org/Graphics/SVG/1.1/DTD/svg11.dtd">
<svg version="1.1" id="Ebene_1" xmlns="http://www.w3.org/2000/svg" xmlns:xlink="http://www.w3.org/1999/xlink" x="0px" y="0px"
	 width="500px" height="500px" viewBox="0 0 500 500" enable-background="new 0 0 500 500" xml:space="preserve">
<g>
	<polygon fill="none" stroke="#FFFFFF" stroke-width="15" stroke-miterlimit="10" points="261.813,359.5 226.869,300.5 
		261.813,241.5 331.702,241.5 366.645,300.5 331.702,359.5 	"/>
	<polygon fill="none" stroke="#FFFFFF" stroke-width="15" stroke-miterlimit="10" points="365.168,300.5 330.227,241.5 
		365.168,182.5 435.059,182.5 470,241.5 435.059,300.5 	"/>
	<polygon fill="none" stroke="#FFFFFF" stroke-width="15" stroke-miterlimit="10" points="365.168,419.5 330.227,360 365.168,300.5 
		435.059,300.5 470,360 435.059,419.5 	"/>
	<polygon fill="none" stroke="#FFFFFF" stroke-width="15" stroke-miterlimit="10" points="168.3,196.5 133.357,137.5 168.3,78.5 
		238.189,78.5 273.132,137.5 238.189,196.5 	"/>
	<polygon fill="none" stroke="#FFFFFF" stroke-width="15" stroke-miterlimit="10" points="271.656,137.5 236.713,78.5 271.656,19.5 
		341.544,19.5 376.489,78.5 341.544,137.5 	"/>
	<polygon fill="none" stroke="#FFFFFF" stroke-width="15" stroke-miterlimit="10" points="64.943,137.5 30,78.5 64.943,19.5 
		134.831,19.5 169.775,78.5 134.831,137.5 	"/>
</g>
</svg>
